<svg height="512pt" viewBox="-85 0 512 512" width="512pt" xmlns="http://www.w3.org/2000/svg"><path d="m309.332031 106.667969h-192c-5.886719 0-10.664062 4.777343-10.664062 10.664062v140.589844c0 2.664063-1.175781 5.503906-3.074219 7.402344l-67.625 67.625c-2.644531 2.644531-3.710938 6.484375-2.816406 10.113281.894531 3.625 3.648437 6.527344 7.230468 7.613281 25.453126 7.808594 51.863282 24.363281 74.261719 46.59375 22.292969 22.484375 38.847657 48.894531 46.65625 74.324219 1.089844 3.585938 3.988281 6.316406 7.617188 7.234375.851562.210937 1.726562.320313 2.582031.320313 2.792969 0 5.523438-1.109376 7.550781-3.117188l119.039063-119.039062c13.929687-13.929688 21.910156-33.152344 21.910156-52.777344v-186.882813c0-5.886719-4.777344-10.664062-10.667969-10.664062zm0 0" fill="#eceff1"/><path d="m309.332031 0h-192c-17.640625 0-32 14.355469-32 32v64c0 17.644531 14.359375 32 32 32h192c17.644531 0 32-14.355469 32-32v-64c0-17.644531-14.355469-32-32-32zm0 0" fill="#cfd8dc"/><path d="m181.71875 465.34375c-8.917969-29.121094-26.859375-57.855469-51.96875-83.15625-25.257812-25.046875-53.996094-42.988281-83.117188-51.90625-3.773437-1.152344-7.871093-.125-10.664062 2.667969l-6.402344 6.398437c-18.792968 18.796875-29.566406 44.867188-29.566406 71.53125 0 26.816406 10.496094 52.226563 29.632812 71.574219 19.261719 19.050781 44.671876 29.546875 71.488282 29.546875 26.664062 0 52.734375-10.773438 71.550781-29.589844l6.398437-6.398437c2.773438-2.773438 3.800782-6.890625 2.648438-10.667969zm0 0" fill="#b0bec5"/><path d="m274.453125 269.867188c-.085937-.683594-.253906-1.34375-.492187-2.027344l-17.066407-49.066406c-.425781-1.214844-1.085937-2.324219-1.917969-3.285157-7.511718-14.359375-23.53125-23.488281-41.644531-23.488281-18.003906 0-33.941406 9.023438-41.492187 23.253906-.894532 1.003906-1.601563 2.21875-2.070313 3.5625l-16.851562 48.640625c-.171875.511719-.320313 1.023438-.40625 1.554688-2.132813 5.78125-3.179688 11.328125-3.179688 16.855469 0 11.648437 4.074219 22.761718 11.820313 32.171874 2.132812 2.601563 5.3125 4.179688 8.726562 3.882813 3.347656-.152344 6.441406-1.878906 8.339844-4.652344 7.9375-11.648437 21.054688-18.601562 35.113281-18.601562 14.058594 0 27.179688 6.953125 35.136719 18.601562 1.898438 2.773438 4.972656 4.480469 8.34375 4.652344h.46875c3.175781 0 6.207031-1.410156 8.234375-3.882813 7.742187-9.410156 11.816406-20.523437 11.816406-32.171874 0-6.1875-1.40625-11.648438-2.878906-16zm0 0" fill="#ffc107"/><path d="m266.089844 305.238281c-11.925782-17.472656-31.636719-27.90625-52.757813-27.90625-21.117187 0-40.832031 10.433594-52.757812 27.90625-2.6875 3.945313-2.429688 9.195313.621093 12.863281 12.160157 14.550782 31.65625 23.230469 52.136719 23.230469s39.980469-8.679687 52.140625-23.230469c3.050782-3.667968 3.304688-8.917968.617188-12.863281zm0 0" fill="#ffa000"/><path d="m309.332031 128h-192c-17.640625 0-32-14.355469-32-32v-64c0-17.644531 14.359375-32 32-32h192c17.644531 0 32 14.355469 32 32v64c0 17.644531-14.355469 32-32 32zm-192-106.667969c-5.867187 0-10.664062 4.800781-10.664062 10.667969v64c0 5.867188 4.796875 10.667969 10.664062 10.667969h192c5.867188 0 10.667969-4.800781 10.667969-10.667969v-64c0-5.867188-4.800781-10.667969-10.667969-10.667969zm0 0"/><path d="m101.207031 512c-55.851562 0-101.207031-45.355469-101.207031-101.121094 0-27.09375 10.515625-52.480468 29.632812-71.570312l73.917969-73.921875c1.964844-1.984375 3.117188-4.734375 3.117188-7.550781v-140.503907c0-5.886719 4.777343-10.664062 10.664062-10.664062 5.890625 0 10.667969 4.777343 10.667969 10.664062v140.503907c0 8.425781-3.414062 16.660156-9.367188 22.632812l-73.917968 73.921875c-15.082032 15.058594-23.382813 35.09375-23.382813 56.402344 0 44.078125 35.796875 79.875 79.789063 79.875 21.394531 0 41.40625-8.300781 56.488281-23.382813l125.421875-125.417968c9.9375-9.921876 15.636719-23.660157 15.636719-37.695313v-186.839844c0-5.886719 4.777343-10.664062 10.664062-10.664062 5.890625 0 10.667969 4.777343 10.667969 10.664062v186.839844c0 19.648437-7.980469 38.890625-21.867188 52.796875l-125.417968 125.421875c-19.113282 19.09375-44.5 29.609375-71.507813 29.609375zm0 0"/><path d="m213.332031 341.332031c-35.285156 0-64-24.875-64-55.464843 0-5.546876 1.089844-11.222657 3.222657-16.898438.085937-.511719.234374-1.042969.40625-1.535156l16.851562-48.554688c.425781-1.195312 1.023438-2.238281 1.773438-3.175781 7.527343-14.488281 23.570312-23.703125 41.746093-23.703125 18.21875 0 34.371094 9.300781 41.835938 23.871094.726562.898437 1.300781 1.898437 1.683593 3.007812l17.070313 49.046875c.210937.574219.359375 1.214844.445313 1.8125 1.984374 5.527344 2.964843 10.835938 2.964843 16.128907 0 30.589843-28.714843 55.464843-64 55.464843zm-39.53125-68.882812c-.125.917969-.359375 1.8125-.722656 2.6875-1.621094 3.796875-2.410156 7.316406-2.410156 10.730469 0 18.816406 19.132812 34.132812 42.664062 34.132812s42.667969-15.316406 42.667969-34.132812c0-3.222657-.746094-6.65625-2.28125-10.453126-.363281-.875-.578125-1.769531-.707031-2.667968l-15.550781-44.671875c-.296876-.449219-.554688-.9375-.769532-1.449219-3.476562-7.9375-12.863281-13.292969-23.359375-13.292969-10.496093 0-19.882812 5.355469-23.359375 13.292969-.234375.53125-.46875 1.042969-.789062 1.492188zm0 0"/><path d="m224 256c-2.773438 0-5.546875-1.066406-7.488281-3.199219-2.113281-1.921875-3.179688-4.695312-3.179688-7.46875 0-1.492187.214844-2.773437.855469-4.050781.425781-1.28125 1.277344-2.5625 2.324219-3.414062 3.863281-4.03125 10.902343-4.03125 14.933593 0 2.15625 1.917968 3.222657 4.691406 3.222657 7.464843 0 1.472657-.214844 2.773438-.855469 4.035157-.445312 1.300781-1.300781 2.558593-2.347656 3.410156-1.917969 2.15625-4.691406 3.222656-7.464844 3.222656zm0 0"/><path d="m202.667969 256c-2.773438 0-5.546875-1.066406-7.488281-3.199219-1.066407-.855469-1.921876-2.132812-2.328126-3.414062-.636718-1.28125-.851562-2.582031-.851562-4.054688 0-2.773437 1.066406-5.546875 3.179688-7.488281 3.859374-4.03125 11.113281-4.03125 14.933593 0 2.152344 1.941406 3.21875 4.714844 3.21875 7.488281 0 1.472657-.210937 2.773438-.851562 4.035157-.449219 1.300781-1.300781 2.558593-2.347657 3.410156-1.917968 2.15625-4.691406 3.222656-7.464843 3.222656zm0 0"/><path d="m234.558594 219.542969c-4.09375 0-8.042969-2.390625-9.789063-6.421875-2.328125-5.398438.148438-11.691406 5.546875-14.039063 15.59375-6.761719 25.683594-22.121093 25.683594-39.082031 0-5.886719 4.777344-10.667969 10.667969-10.667969 5.886719 0 10.664062 4.78125 10.664062 10.667969 0 25.449219-15.125 48.46875-38.527343 58.667969-1.363282.574219-2.816407.875-4.246094.875zm0 0"/><path d="m257.535156 200.449219c-2.089844 0-4.160156-.597657-5.992187-1.855469-10.882813-7.40625-16.875-17.324219-16.875-27.925781 0-5.890625 4.777343-10.667969 10.664062-10.667969 5.890625 0 10.667969 4.777344 10.667969 10.667969 0 4.480469 4.734375 8.382812 7.550781 10.28125 4.886719 3.308593 6.125 9.941406 2.816407 14.804687-2.070313 3.050782-5.4375 4.695313-8.832032 4.695313zm0 0"/><path d="m169.128906 200.449219c-3.390625 0-6.738281-1.621094-8.808594-4.671875-3.308593-4.886719-2.070312-11.5 2.816407-14.808594 2.792969-1.917969 7.53125-5.820312 7.53125-10.300781 0-5.890625 4.777343-10.667969 10.664062-10.667969 5.890625 0 10.667969 4.777344 10.667969 10.667969 0 10.601562-5.996094 20.519531-16.875 27.925781-1.835938 1.234375-3.925781 1.855469-5.996094 1.855469zm0 0"/><path d="m192.105469 219.542969c-1.40625 0-2.878907-.300781-4.242188-.875-23.40625-10.199219-38.53125-33.21875-38.53125-58.667969 0-5.886719 4.78125-10.667969 10.667969-10.667969s10.667969 4.78125 10.667969 10.667969c0 16.960938 10.089843 32.320312 25.683593 39.082031 5.398438 2.347657 7.871094 8.640625 5.546876 14.039063-1.75 4.03125-5.695313 6.421875-9.792969 6.421875zm0 0"/><path d="m257.324219 321.855469c-3.394531 0-6.722657-1.621094-8.789063-4.628907-7.980468-11.625-21.121094-18.558593-35.203125-18.558593-14.078125 0-27.21875 6.933593-35.199219 18.558593-3.304687 4.84375-9.941406 6.101563-14.824218 2.753907-4.867188-3.328125-6.082032-9.964844-2.753906-14.828125 11.925781-17.429688 31.679687-27.820313 52.777343-27.820313 21.101563 0 40.855469 10.390625 52.800781 27.820313 3.328126 4.886718 2.113282 11.5-2.75 14.828125-1.859374 1.277343-3.96875 1.875-6.058593 1.875zm0 0"/><path d="m171.5 479.0625c-4.566406 0-8.789062-2.945312-10.199219-7.554688-7.851562-25.535156-24.449219-51.882812-46.699219-74.132812-22.25-22.269531-48.574218-38.847656-74.132812-46.699219-5.652344-1.707031-8.789062-7.679687-7.0625-13.308593 1.707031-5.65625 7.703125-8.917969 13.3125-7.0625 28.84375 8.832031 58.285156 27.304687 82.964844 52.011718 24.683594 24.660156 43.160156 54.121094 52.011718 82.964844 1.730469 5.628906-1.40625 11.605469-7.0625 13.3125-1.042968.316406-2.089843.46875-3.132812.46875zm0 0"/><path d="m256 245.332031c-2.730469 0-5.460938-1.042969-7.550781-3.113281-4.160157-4.160156-4.160157-10.921875 0-15.082031l10.664062-10.667969c4.160157-4.160156 10.925781-4.160156 15.085938 0 4.15625 4.160156 4.15625 10.921875 0 15.082031l-10.667969 10.667969c-2.070312 2.070312-4.800781 3.113281-7.53125 3.113281zm0 0"/><path d="m170.667969 245.332031c-2.730469 0-5.460938-1.042969-7.554688-3.113281l-10.664062-10.667969c-4.160157-4.160156-4.160157-10.921875 0-15.082031 4.160156-4.160156 10.921875-4.160156 15.082031 0l10.667969 10.667969c4.15625 4.160156 4.15625 10.921875 0 15.082031-2.070313 2.070312-4.800781 3.113281-7.53125 3.113281zm0 0"/></svg>